<svg width="23" height="22" viewBox="0 0 23 22" fill="none" xmlns="http://www.w3.org/2000/svg">
    <path d="M9.9634 2.37764C9.70421 1.20852 10.4462 0.0275983 11.6435 0.00240816C13.6245 -0.0392724 15.5944 0.454916 17.3375 1.45219C19.7128 2.81114 21.4962 5.00665 22.3396 7.60999C23.183 10.2133 23.0257 13.0376 21.8984 15.5311C20.7712 18.0247 18.7549 20.0086 16.2435 21.0954C13.732 22.1821 10.9056 22.2938 8.31621 21.4084C5.72685 20.5231 3.56046 18.7044 2.2401 16.3074C0.919743 13.9105 0.540227 11.1075 1.17567 8.44573C1.64199 6.4924 2.63034 4.71809 4.01686 3.30258C4.85482 2.4471 6.2236 2.71464 6.89839 3.70393C7.57318 4.69321 7.27903 6.02881 6.55739 6.98446C6.00795 7.71208 5.60898 8.5509 5.39369 9.45271C5.00876 11.0651 5.23866 12.7631 6.03849 14.2151C6.83832 15.667 8.15065 16.7688 9.7192 17.3051C11.2878 17.8414 12.9999 17.7738 14.5213 17.1154C16.0426 16.4571 17.264 15.2553 17.9469 13.7448C18.6297 12.2343 18.725 10.5235 18.2141 8.94644C17.7032 7.36942 16.6229 6.03945 15.184 5.21625C14.3793 4.75583 13.4947 4.47242 12.5882 4.37483C11.3975 4.24665 10.2226 3.54676 9.9634 2.37764Z" fill="#F69C85"/>
</svg>
