<svg width="24" height="24" viewBox="0 0 24 24" fill="none" xmlns="http://www.w3.org/2000/svg">
    <path d="M22.905 11.7549C22.865 11.5749 22.785 11.4549 22.635 11.2149C21.405 9.25494 17.725 4.31494 12.125 4.31494C6.52501 4.31494 2.84501 9.25494 1.61501 11.2149C1.46501 11.4549 1.39501 11.5649 1.34501 11.7549C1.31501 11.8949 1.31501 12.1049 1.34501 12.2449C1.38501 12.4249 1.46501 12.5449 1.61501 12.7849C2.84501 14.7449 6.52501 19.6849 12.125 19.6849C17.725 19.6849 21.405 14.7449 22.635 12.7849C22.785 12.5449 22.855 12.4349 22.905 12.2449C22.935 12.1049 22.935 11.8949 22.905 11.7549ZM12.125 15.9849C9.92501 15.9849 8.13501 14.2049 8.13501 11.9949C8.13501 9.78494 9.91501 8.00494 12.125 8.00494C14.335 8.00494 16.115 9.78494 16.115 11.9949C16.115 14.2049 14.335 15.9849 12.125 15.9849Z" fill="#B1B1B1"/>
    <path d="M12.1196 14.6849C13.6012 14.6849 14.8022 13.4828 14.8022 11.9999C14.8022 10.5171 13.6012 9.31494 12.1196 9.31494C10.638 9.31494 9.43695 10.5171 9.43695 11.9999C9.43695 13.4828 10.638 14.6849 12.1196 14.6849Z" fill="#B1B1B1"/>
</svg>
